<mxfile host="app.diagrams.net" agent="Mozilla/5.0 (X11; Ubuntu; Linux x86_64; rv:130.0) Gecko/20100101 Firefox/130.0" version="24.7.7">
  <diagram name="Page-1" id="cc8wFc7xVqvPqlm56SUc">
    <mxGraphModel dx="1022" dy="398" grid="1" gridSize="10" guides="1" tooltips="1" connect="1" arrows="1" fold="1" page="1" pageScale="1" pageWidth="75" pageHeight="85" math="1" shadow="0">
      <root>
        <mxCell id="0" />
        <mxCell id="1" parent="0" />
        <mxCell id="zvreYvzmFc9w-Mhgytea-24" value="" style="edgeStyle=orthogonalEdgeStyle;rounded=0;orthogonalLoop=1;jettySize=auto;html=1;strokeWidth=3;" edge="1" parent="1" source="zvreYvzmFc9w-Mhgytea-1" target="zvreYvzmFc9w-Mhgytea-21">
          <mxGeometry relative="1" as="geometry" />
        </mxCell>
        <mxCell id="zvreYvzmFc9w-Mhgytea-1" value="$$\text{Imagen de entrada}$$" style="rounded=1;whiteSpace=wrap;html=1;fillColor=#EDEDEE;fontColor=#333333;strokeColor=#000000;strokeWidth=1;" vertex="1" parent="1">
          <mxGeometry x="-240" y="-70" width="120" height="60" as="geometry" />
        </mxCell>
        <mxCell id="zvreYvzmFc9w-Mhgytea-21" value="$$\text{ConvoluciÃ³n}$$" style="rounded=1;whiteSpace=wrap;html=1;fillColor=#EDEDEE;fontColor=#333333;strokeColor=#000000;strokeWidth=1;" vertex="1" parent="1">
          <mxGeometry x="-30" y="-70" width="120" height="60" as="geometry" />
        </mxCell>
        <mxCell id="zvreYvzmFc9w-Mhgytea-22" value="$$S[n,x,y] = \text{w}_0[n] + \sum_{m = 1}^M \sum_{i,j \in \textbf{W}} \text{w}[m,i,j]I[m,x+i,y+j] \hspace{4mm} \text{for } 1\leq n \leq N$$" style="whiteSpace=wrap;html=1;aspect=fixed;fillColor=#EDEDEE;" vertex="1" parent="1">
          <mxGeometry x="-40" y="20" width="140" height="140" as="geometry" />
        </mxCell>
      </root>
    </mxGraphModel>
  </diagram>
</mxfile>
